<?xml version="1.0" standalone="no"?>
<!DOCTYPE svg PUBLIC "-//W3C//DTD SVG 20010904//EN" "http://www.w3.org/TR/2001/REC-SVG-20010904/DTD/svg10.dtd">
<!-- Created using Karbon, part of Calligra: http://www.calligra.org/karbon -->
<svg xmlns="http://www.w3.org/2000/svg" xmlns:xlink="http://www.w3.org/1999/xlink" width="56.693pt" height="56.693pt">
<defs/>
<g id="g923">
  <path id="path910" transform="translate(1.55874, 19.4046)" fill="#000000" d="M18.3158 4.40403C17.0956 4.15396 15.7851 4.10486 14.5476 4.39194C9.16775 5.64027 4.3469 11.1241 1.66253 16.0248C0.729319 17.7287 -0.265695 20.025 0.0647914 22.0651C0.217288 23.0059 0.745076 23.837 0.983788 24.7497C1.5278 26.8288 1.92441 28.485 3.73228 29.7909C7.92989 32.8228 13.7315 32.8084 18.5648 33.3352C23.351 33.8569 28.1249 33.8525 32.9338 33.9805C36.2069 34.0676 40.5726 33.8434 43.8609 33.5034C48.0145 33.0742 50.6892 32.351 54.719 31.3647C58.9217 30.3362 64.0505 27.4236 66.8965 23.9106C67.7601 22.8443 69.1383 20.9568 68.4959 19.448C68.1616 18.6633 67.5608 17.7552 67.03 16.9483C63.6789 11.8553 58.7611 6.85856 53.1737 4.78691C51.1672 4.04294 49.4305 4.07928 48.4688 4.59522C45.4491 1.39815 43.2262 0.99318 41.1318 0.371696C38.1894 -0.501468 32.5427 0.31335 31.6106 1.27529C28.2445 0.320586 25.1895 0.186353 21.6804 1.2815C20.0541 1.78906 18.3623 2.30602 18.3158 4.40403Z"/>
  <path id="path913" transform="translate(2.98788, 24.8714)" fill="#fee5b2" d="M0.435857 16.1857C0.661742 14.2462 19.1398 8.65618 21.5984 9.95435C21.4651 8.62061 20.2206 6.14133 19.6526 4.92201C18.2243 2.63832 17.5195 1.01472 15.8553 0.255148C14.3914 -0.413148 12.8977 0.372767 11.5734 0.994083C8.25109 2.55282 5.23007 5.30017 3.00116 8.37674C1.90155 9.89436 0.879189 11.7615 0.273067 13.5781C0.0284855 14.3113 -0.260652 15.6489 0.435857 16.1857Z"/>
  <path id="path911" transform="translate(21.205, 20.4623)" fill="#fee5b2" d="M14.2144 0.369601L16.5352 2.88386C16.8658 3.2798 17.7114 4.44583 17.9706 5.12336C18.4933 6.29407 31.3872 11.7759 32.2019 16.9805C34.8952 16.7592 43.3368 13.0406 45.1748 15.4704C45.7641 16.2493 46.2087 17.8168 46.3549 18.8286L47.4987 18.3349C44.7949 13.0662 40.7983 8.72238 35.8452 6.03294C34.3418 5.02426 31.489 4.05344 29.9913 4.59009C31.7304 7.47391 32.7166 8.90898 33.4331 12.401C33.4975 12.9616 33.8851 14.5256 33.2767 15.3629C33.064 14.6979 32.8074 13.5127 32.5485 12.7858C31.3082 9.30449 30.197 7.1928 28.5985 4.92215C26.7548 2.30333 23.0398 0.425809 19.9312 0.063221C18.0008 -0.162117 16.1266 0.280506 14.2144 0.369601M0 2.71862C1.25006 3.33756 1.70851 3.92379 2.47208 5.22942L2.92669 6.22883C3.53064 4.93686 4.69744 3.5537 5.8712 3.0547C8.66943 1.86526 11.3359 2.38187 13.3907 4.96076C14.7466 6.66247 15.7277 9.07792 16.5537 11.108C16.9807 12.4829 17.4741 13.961 17.9141 14.0575C18.4492 14.1375 18.7963 12.84 19.0495 12.4268C18.5732 12.4639 18.3377 11.501 18.149 11.0089C17.4731 9.24494 17.3965 8.16279 16.2813 6.40992C14.9076 4.25069 12.4991 1.24662 10.0165 0.58806C8.38097 0.15433 6.12228 0.526207 4.48065 0.789969C3.13259 1.00675 0.798792 1.36878 0 2.71862Z"/>
  <path id="path912" transform="translate(3.28559, 22.3982)" fill="#f9cb98" d="M36.2112 10.5426C35.5174 10.4251 35.1521 8.89072 34.7364 8.02776C33.1649 3.88361 31.6182 0.445044 26.7262 0.447058C25.7944 0.447393 24.9814 0.588671 24.0997 0.927603C23.0485 1.33163 20.9266 1.85031 20.7016 3.04037C20.6845 3.89794 20.7448 4.02638 21.0896 5.1111C21.4846 6.70748 21.8546 8.35973 21.9505 9.84314C21.9897 10.4515 22.1752 11.6568 21.4639 12.0189C20.6882 12.118 19.807 10.9495 19.4314 10.344C18.3695 8.63221 17.3747 6.67448 15.6019 5.71187C10.9137 3.16621 5.04641 9.73707 2.46833 13.214C1.55613 14.444 -0.462631 16.408 0.0962136 18.23C0.404451 19.2354 1.81554 20.159 2.53446 20.8374C6.46243 24.544 10.2264 24.8113 15.0708 25.4967C21.794 26.4477 23.962 27.2476 30.702 27.1936C31.6324 27.186 37.0489 26.474 38.0051 26.4616C43.5892 26.3894 49.3404 27.0512 54.6341 25.2586C57.5911 24.2569 60.2172 21.3887 62.5575 19.0364C63.0981 18.4932 65.4291 17.4383 65.4291 16.6197C65.4287 15.8557 63.6397 14.1031 63.219 13.5345C61.6163 11.3665 58.7998 8.59396 56.5458 7.28974C55.6215 6.75502 52.9753 5.12109 51.9459 5.58451C51.2788 6.12553 51.5622 7.14638 51.5962 7.8297C51.6915 9.69131 52.7783 13.2689 51.1117 14.1941C50.0846 14.4263 48.0962 4.43496 44.6953 2.51928C43.5445 1.62447 41.2609 0.577979 40.0115 0.401324C38.6903 0.160489 38.2623 -0.0127308 36.7987 0.000734065C35.7409 -0.000369974 35.3631 0.508461 35.1137 0.87843C34.9857 1.5265 35.3078 1.67701 35.7553 2.7483C36.8272 6.04273 37.2064 8.7517 36.8095 10.4339M49.1294 1.95714L49.2839 2.12493Z"/>
  <path id="path914" transform="translate(5.13648, 25.9007)" fill="#f1b180" d="M0 17.3209C6.50304 23.0252 14.8064 22.7369 22.342 22.9771C30.1373 23.2257 38.0889 24.6224 45.77 22.6236C49.8455 21.5631 55.903 19.86 59.79 17.4746C60.6826 15.7999 60.5178 17.3212 61.0202 15.0474C61.5281 13.9598 57.586 9.89794 56.1915 8.6855C54.867 7.74584 54.0561 7.34464 53.0416 7.35473C52.1121 7.36724 52.142 9.12641 52.1317 10.0525C52.1089 12.1893 50.9118 16.291 48.7181 15.3314C45.1238 13.7592 45.1483 6.94046 43.338 3.38988C42.1159 0.992928 40.2604 -0.576636 38.0126 0.373303C36.7246 0.917421 36.758 2.29033 36.7718 3.79367C36.7989 6.75835 36.8256 6.14173 36.7386 8.43734C36.5663 9.47353 36.2312 11.8832 35.2195 12.0903C34.1261 12.3142 33.005 8.82522 32.6205 7.83167C31.0822 3.85687 28.4905 0.115615 26.376 0.143339C24.893 -0.505568 21.9083 1.14314 21.4784 3.18798C21.1211 4.88655 21.5085 6.92048 21.56 8.63928C21.5875 9.55446 21.4393 11.7322 20.5343 11.9699C20.055 12.0956 19.4949 12.2056 19.0838 11.9423C16.6544 10.3861 16.2442 6.26208 13.9637 4.90412C12.3287 3.93056 10.5634 5.2213 9.15398 6.24472C5.7537 8.71335 1.81622 12.7408 0 17.3209Z"/>
  <path id="path915" transform="translate(23.9861, 32.0736)" fill="#fee5b2" d="M15.914 0L16.0685 0.167787L15.914 0M0 2.01345L0.154505 2.18123Z"/>
  <path id="path916" transform="translate(2.99413, 38.5945)" fill="#935149" d="M0 1.63243C0.34949 3.83849 0.750874 7.08593 2.17078 8.7405C4.68796 11.6732 9.69161 12.0206 13.1122 12.465C20.1697 13.3821 27.1754 13.564 34.2794 13.6137C39.6418 13.6511 44.8258 13.1519 50.3479 11.7593C54.7144 10.0772 59.6742 8.75912 63.1719 5.23911C64.0781 4.32717 66.3773 2.17194 65.853 0.536692C65.3171 -1.13497 63.7186 1.5919 63.3852 2.03604C60.2097 6.26359 54.4697 7.31698 49.916 8.56616C46.1986 9.58559 42.6692 9.99205 38.8404 9.92408C38.0452 9.91 33.3354 10.0409 32.5346 10.0735C25.4571 10.3606 21.5474 9.65301 14.5028 8.74726C12.4313 8.48099 9.88988 8.24806 7.9016 7.45242C6.00673 6.69431 4.49252 6.06629 2.95891 4.6411C1.91445 3.67045 1.2518 2.27891 0 1.63243Z"/>
 </g>
</svg>
